<?xml version="1.0" encoding="UTF-8" standalone="no"?>
<!DOCTYPE svg PUBLIC "-//W3C//DTD SVG 1.1//EN" "http://www.w3.org/Graphics/SVG/1.1/DTD/svg11.dtd">
<svg version="1.1" xmlns="http://www.w3.org/2000/svg" xmlns:xlink="http://www.w3.org/1999/xlink" preserveAspectRatio="xMidYMid meet" viewBox="0 0 640 640" width="4096" height="4096"><defs><path d="M196.79 0.6L204.13 1.35L211.37 2.38L218.53 3.7L225.58 5.29L232.53 7.15L239.36 9.27L246.07 11.66L252.67 14.29L259.13 17.18L265.45 20.3L271.64 23.66L277.68 27.25L283.56 31.06L289.28 35.09L294.84 39.34L300.23 43.78L305.45 48.43L310.48 53.27L315.32 58.3L319.97 63.52L324.41 68.91L328.66 74.47L332.69 80.19L336.5 86.08L340.09 92.11L343.45 98.3L346.57 104.62L349.45 111.08L352.09 117.68L354.48 124.39L356.6 131.23L358.46 138.17L360.05 145.22L361.37 152.38L362.4 159.62L363.15 166.96L363.6 174.38L363.75 181.88L363.6 189.37L363.15 196.79L362.4 204.13L361.37 211.37L360.05 218.53L358.46 225.58L356.6 232.52L354.48 239.36L352.09 246.07L349.45 252.66L346.57 259.13L343.45 265.45L340.09 271.64L336.5 277.67L332.69 283.56L328.66 289.28L324.41 294.84L319.97 300.23L315.32 305.44L310.48 310.47L305.45 315.32L300.23 319.96L294.84 324.41L289.28 328.65L283.56 332.68L277.68 336.5L271.64 340.09L265.45 343.44L259.13 346.57L252.67 349.45L246.07 352.09L239.36 354.47L232.53 356.6L225.58 358.46L218.53 360.05L211.37 361.37L204.13 362.4L196.79 363.14L189.37 363.59L181.88 363.75L174.38 363.59L166.96 363.14L159.62 362.4L152.38 361.37L145.22 360.05L138.17 358.46L131.23 356.6L124.39 354.47L117.68 352.09L111.08 349.45L104.62 346.57L98.3 343.44L92.11 340.09L86.08 336.5L80.19 332.68L74.47 328.65L68.91 324.41L63.52 319.96L58.3 315.32L53.27 310.47L48.43 305.44L43.78 300.23L39.34 294.84L35.09 289.28L31.06 283.56L27.25 277.67L23.66 271.64L20.3 265.45L17.18 259.13L14.29 252.66L11.66 246.07L9.27 239.36L7.15 232.52L5.29 225.58L3.7 218.53L2.38 211.37L1.35 204.13L0.6 196.79L0.15 189.37L0 181.88L0.15 174.38L0.6 166.96L1.35 159.62L2.38 152.38L3.7 145.22L5.29 138.17L7.15 131.23L9.27 124.39L11.66 117.68L14.29 111.08L17.18 104.62L20.3 98.3L23.66 92.11L27.25 86.08L31.06 80.19L35.09 74.47L39.34 68.91L43.78 63.52L48.43 58.3L53.27 53.27L58.3 48.43L63.52 43.78L68.91 39.34L74.47 35.09L80.19 31.06L86.08 27.25L92.11 23.66L98.3 20.3L104.62 17.18L111.08 14.29L117.68 11.66L124.39 9.27L131.23 7.15L138.17 5.29L145.22 3.7L152.38 2.38L159.62 1.35L166.96 0.6L174.38 0.15L181.88 0L189.37 0.15L196.79 0.6ZM170.7 45.92L165.21 46.48L159.78 47.26L154.42 48.25L149.13 49.44L143.93 50.84L138.8 52.44L133.77 54.23L128.83 56.21L123.98 58.37L119.24 60.72L114.6 63.24L110.07 65.94L105.66 68.8L101.37 71.82L97.19 75.01L93.15 78.34L89.24 81.83L85.47 85.47L81.83 89.24L78.34 93.15L75.01 97.2L71.82 101.37L68.8 105.66L65.93 110.07L63.24 114.6L60.72 119.24L58.37 123.98L56.21 128.83L54.23 133.77L52.44 138.81L50.84 143.93L49.44 149.13L48.25 154.42L47.26 159.78L46.48 165.21L45.92 170.7L45.58 176.26L45.47 181.88L45.58 187.49L45.92 193.05L46.48 198.54L47.26 203.97L48.25 209.33L49.44 214.62L50.84 219.82L52.44 224.95L54.23 229.98L56.21 234.92L58.37 239.77L60.72 244.51L63.24 249.15L65.93 253.68L68.8 258.09L71.82 262.38L75.01 266.55L78.34 270.6L81.83 274.51L85.47 278.28L89.24 281.92L93.15 285.4L97.19 288.74L101.37 291.93L105.66 294.95L110.07 297.81L114.6 300.51L119.24 303.03L123.98 305.38L128.83 307.54L133.77 309.52L138.8 311.31L143.93 312.91L149.13 314.31L154.42 315.5L159.78 316.49L165.21 317.26L170.7 317.82L176.26 318.16L181.88 318.28L187.49 318.16L193.05 317.82L198.54 317.26L203.97 316.49L209.33 315.5L214.62 314.31L219.82 312.91L224.94 311.31L229.98 309.52L234.92 307.54L239.77 305.38L244.51 303.03L249.15 300.51L253.68 297.81L258.09 294.95L262.38 291.93L266.56 288.74L270.6 285.4L274.51 281.92L278.29 278.28L281.92 274.51L285.41 270.6L288.75 266.55L291.93 262.38L294.96 258.09L297.82 253.68L300.51 249.15L303.04 244.51L305.38 239.77L307.55 234.92L309.53 229.98L311.32 224.95L312.91 219.82L314.31 214.62L315.51 209.33L316.49 203.97L317.27 198.54L317.83 193.05L318.17 187.49L318.28 181.88L318.17 176.26L317.83 170.7L317.27 165.21L316.49 159.78L315.51 154.42L314.31 149.13L312.91 143.93L311.32 138.81L309.53 133.77L307.55 128.83L305.38 123.98L303.04 119.24L300.51 114.6L297.82 110.07L294.96 105.66L291.93 101.37L288.75 97.2L285.41 93.15L281.92 89.24L278.29 85.47L274.51 81.83L270.6 78.34L266.56 75.01L262.38 71.82L258.09 68.8L253.68 65.94L249.15 63.24L244.51 60.72L239.77 58.37L234.92 56.21L229.98 54.23L224.94 52.44L219.82 50.84L214.62 49.44L209.33 48.25L203.97 47.26L198.54 46.48L193.05 45.92L187.49 45.59L181.88 45.47L176.26 45.59L170.7 45.92Z" id="ajBWXmue8"></path><path d="M360.41 296.11C343.83 321.9 321.89 343.83 296.11 360.41C307.23 371.53 396.25 460.55 407.38 471.68C425.15 489.44 453.95 489.44 471.67 471.68C489.44 453.95 489.44 425.15 471.67 407.39C449.42 385.13 371.54 307.24 360.41 296.11Z" id="h2690QCAkh"></path></defs><g><g><g><use xlink:href="#ajBWXmue8" opacity="1" fill="#ffffff" fill-opacity="1"></use><g><use xlink:href="#ajBWXmue8" opacity="1" fill-opacity="0" stroke="#000000" stroke-width="1" stroke-opacity="0"></use></g></g><g><use xlink:href="#h2690QCAkh" opacity="1" fill="#ffffff" fill-opacity="1"></use><g><use xlink:href="#h2690QCAkh" opacity="1" fill-opacity="0" stroke="#000000" stroke-width="1" stroke-opacity="0"></use></g></g></g></g></svg>